# Blender v2.79 (sub 0) OBJ File: 'circuit.blend'
# www.blender.org
mtllib circuit.mtl
o T_Circuit_CUBezierCurve
v 161.221146 -0.505546 -23.763136
v 140.443375 0.474394 22.687548
v 202.168793 2.191107 -16.678055
v 165.279419 2.232000 24.616270
v 229.128067 11.435704 4.713082
v 194.517914 6.828956 17.444361
v 225.927551 24.501627 37.417404
v 197.150635 16.615854 37.242920
v 223.364304 34.881073 59.516998
v 193.228622 28.340288 57.649609
v 211.470520 44.352074 81.253128
v 189.385483 35.808819 71.349869
v 195.903320 55.966557 107.387390
v 170.952850 50.583595 100.495735
v 174.326218 68.319534 136.755432
v 146.367447 64.620888 130.052399
v 147.867111 80.148300 167.399994
v 116.902496 77.702866 159.999283
v 117.973816 90.619537 198.154617
v 83.518188 89.182541 189.524963
v 85.962883 99.055405 228.297073
v 47.308300 98.267029 217.400574
v 52.735275 104.851875 257.748077
v 9.687498 104.147652 242.051041
v 6.889956 107.797997 293.061249
v -10.258036 105.688629 259.199799
v -31.314495 106.985229 304.421692
v -30.165316 104.861839 265.735992
v -60.714127 105.626534 305.162170
v -57.181149 102.357002 270.014648
v -90.303711 103.618118 299.857422
v -84.831268 98.660751 264.345032
v -120.645874 100.899597 287.387543
v -111.246643 94.245720 250.907425
v -150.377518 97.660065 267.654877
v -136.202576 89.391205 231.058319
v -178.250595 94.167862 241.338043
v -159.353729 84.308403 205.408966
v -203.383469 90.693420 209.228333
v -179.986298 79.207703 174.463074
v -225.048035 87.494987 172.000443
v -197.234283 74.312065 138.842575
v -242.512421 84.823563 130.206573
v -210.237228 69.850624 99.285416
v -254.961761 82.928490 84.333939
v -218.235474 66.056618 56.583447
v -261.569244 82.053902 34.657604
v -220.633621 63.204121 11.479136
v -265.595520 84.562859 -30.918385
v -212.046082 59.254871 -21.279644
v -251.537201 84.304222 -71.006866
v -212.748001 61.876354 -36.733864
v -232.516220 87.166168 -98.139351
v -206.108490 65.449692 -54.211792
v -203.747665 91.687195 -117.018616
v -197.717407 70.648125 -68.788391
v -170.173691 96.410233 -124.075264
v -183.241760 78.128952 -83.754410
v -138.820862 100.726860 -122.491585
v -156.065079 87.665253 -95.401421
v -107.986443 105.631210 -117.983032
v -118.763878 97.422142 -97.592796
v -72.743477 111.390709 -110.338326
v -76.909378 106.324432 -90.144455
v -31.821259 117.357224 -97.411858
v -32.413193 114.197830 -74.744125
v 14.156578 122.773987 -77.838181
v 14.688332 120.976501 -52.318363
v 64.334053 127.037796 -50.995461
v 64.597313 126.443604 -23.058516
v 118.082214 129.660080 -16.658072
v 117.337845 130.271057 13.218759
v 190.429733 129.924759 23.234909
v 157.010956 132.342468 59.005421
v 217.485962 130.108536 39.805065
v 175.117950 133.914307 82.202934
v 239.357254 132.735184 62.949951
v 193.067169 136.154327 101.213036
v 258.015839 137.065720 88.255997
v 206.723969 139.190643 119.611374
v 271.879181 142.822357 115.650375
v 215.505569 142.668503 136.639023
v 278.966614 149.892838 145.330597
v 219.227707 146.077606 151.265945
v 276.558350 157.895065 176.408127
v 218.445099 149.177536 163.548111
v 262.773712 165.882797 206.128616
v 212.873505 152.291931 175.407410
v 238.074509 172.864365 231.865570
v 199.886139 155.789993 188.637756
v 203.446548 178.453705 253.120712
v 176.332169 159.435135 202.904892
v 158.619797 182.611588 270.490448
v 140.316620 162.645645 216.779358
v 102.453522 185.301315 284.379303
v 90.814804 164.844421 229.020920
v 25.670725 185.524841 293.340881
v 34.918003 166.392181 240.241043
v -13.663590 178.230469 284.791809
v 19.415945 166.786072 246.409836
v -42.301411 166.386841 269.972595
v -8.722853 159.480652 243.242661
v -68.775696 152.261261 252.733643
v -38.952000 144.657440 229.244507
v -95.318626 135.092529 231.337006
v -67.156219 125.572105 208.619446
v -120.717239 115.558601 206.023331
v -92.676750 103.969017 183.480667
v -143.677414 94.883904 177.914810
v -114.915909 81.063919 155.080841
v -163.360458 74.356712 148.328690
v -132.824081 58.010040 124.479866
v -179.500290 55.005920 118.219872
v -144.786087 36.217659 93.097069
v -192.198608 37.033451 86.917374
v -148.818329 17.909128 63.949837
v -199.365631 20.141935 51.696960
v -145.019470 5.900930 42.287586
v -194.744980 6.968056 14.241259
v -137.904251 -0.030440 28.740301
v -175.325470 2.028351 -18.594685
v -128.346725 -2.058805 18.412445
v -149.724243 1.948825 -40.788021
v -116.617920 -1.941122 8.817656
v -124.903412 1.728538 -54.181053
v -102.251030 -1.726565 1.436382
v -99.154663 1.499317 -61.592594
v -88.352654 -1.499317 -2.492182
v -73.381592 1.285271 -63.805267
v -72.896973 -1.285271 -3.707911
v -47.995934 1.071159 -62.162712
v -54.944096 -1.071159 -2.449498
v -22.783159 0.846622 -58.001373
v -34.181179 -0.859790 1.037244
v 2.753346 0.653337 -52.397552
v -10.577093 -0.640069 6.246169
v 29.131615 0.428538 -46.213066
v 15.877160 -0.428538 12.456511
v 56.816116 0.214274 -40.195412
v 45.244812 -0.214274 18.833864
v 86.227402 -0.005101 -35.042187
v 77.632713 0.001278 24.493319
v 117.770035 -0.278279 -31.437876
v 113.163490 0.260716 28.535488
v -12.259822 0.871045 -122.193268
v 23.799601 0.628735 -101.856934
v 67.595490 0.863495 -164.869308
v 67.065376 0.636285 -123.372231
v 116.002121 0.837292 -157.503204
v 99.687187 0.645600 -121.267540
v 169.427109 0.809513 -123.184982
v 122.028702 0.628050 -98.761551
vn -0.0213 0.9994 -0.0275
vn -0.0897 0.9929 -0.0784
vn -0.1430 0.9814 -0.1278
vn -0.0227 0.9995 -0.0199
vn -0.2159 0.9429 -0.2535
vn -0.2268 0.9288 -0.2931
vn -0.2248 0.8744 -0.4300
vn -0.2227 0.8733 -0.4332
vn -0.1675 0.8628 -0.4769
vn -0.1707 0.8623 -0.4768
vn -0.1187 0.8713 -0.4761
vn -0.1159 0.8718 -0.4758
vn -0.0627 0.8897 -0.4521
vn -0.0698 0.8863 -0.4577
vn -0.0184 0.9149 -0.4032
vn -0.0280 0.9088 -0.4163
vn 0.0134 0.9395 -0.3424
vn 0.0049 0.9321 -0.3621
vn 0.0325 0.9619 -0.2715
vn 0.0273 0.9543 -0.2974
vn 0.0363 0.9810 -0.1903
vn 0.0367 0.9744 -0.2220
vn 0.0192 0.9948 -0.1003
vn 0.0280 0.9905 -0.1346
vn -0.0150 0.9981 -0.0600
vn -0.0158 0.9981 -0.0597
vn -0.0565 0.9965 -0.0608
vn -0.0611 0.9960 -0.0649
vn -0.0748 0.9921 -0.1002
vn -0.0748 0.9920 -0.1014
vn -0.0591 0.9870 -0.1492
vn -0.0621 0.9875 -0.1445
vn -0.0188 0.9821 -0.1876
vn -0.0274 0.9829 -0.1817
vn 0.0358 0.9768 -0.2109
vn 0.0226 0.9781 -0.2070
vn 0.0981 0.9708 -0.2189
vn 0.0819 0.9724 -0.2183
vn 0.1643 0.9634 -0.2116
vn 0.1461 0.9656 -0.2151
vn 0.2317 0.9543 -0.1886
vn 0.2123 0.9572 -0.1968
vn 0.2973 0.9430 -0.1493
vn 0.2780 0.9467 -0.1628
vn 0.3578 0.9291 -0.0932
vn 0.3403 0.9336 -0.1119
vn 0.4093 0.9122 -0.0191
vn 0.3954 0.9175 -0.0426
vn 0.4152 0.9072 0.0675
vn 0.4143 0.9072 0.0731
vn 0.3618 0.9131 0.1877
vn 0.3293 0.9166 0.2265
vn 0.2239 0.9203 0.3207
vn 0.1770 0.9204 0.3484
vn 0.0701 0.9175 0.3914
vn 0.0136 0.9176 0.3972
vn -0.0727 0.9168 0.3925
vn -0.1177 0.9198 0.3742
vn -0.1706 0.9243 0.3413
vn -0.1923 0.9292 0.3156
vn -0.2158 0.9384 0.2698
vn -0.2193 0.9422 0.2532
vn -0.2174 0.9565 0.1945
vn -0.2175 0.9564 0.1950
vn -0.1882 0.9741 0.1249
vn -0.1955 0.9710 0.1374
vn -0.1402 0.9880 0.0651
vn -0.1558 0.9844 0.0815
vn -0.0801 0.9967 0.0143
vn -0.1021 0.9943 0.0309
vn -0.0102 0.9995 -0.0291
vn -0.0360 0.9992 -0.0144
vn 0.0138 0.9985 -0.0529
vn 0.0140 0.9984 -0.0536
vn 0.0013 0.9964 -0.0841
vn 0.0011 0.9964 -0.0844
vn -0.0268 0.9924 -0.1197
vn -0.0531 0.9867 -0.1538
vn -0.0736 0.9789 -0.1907
vn -0.0848 0.9691 -0.2317
vn -0.0834 0.9586 -0.2723
vn -0.0716 0.9500 -0.3040
vn -0.0716 0.9500 -0.3039
vn -0.0574 0.9448 -0.3225
vn -0.0472 0.9423 -0.3314
vn -0.0417 0.9409 -0.3359
vn -0.0397 0.9397 -0.3397
vn -0.0612 0.9357 -0.3474
vn -0.0724 0.9339 -0.3502
vn -0.1205 0.9186 -0.3764
vn -0.1408 0.9071 -0.3965
vn -0.1711 0.8812 -0.4406
vn -0.1739 0.8742 -0.4532
vn -0.1715 0.8535 -0.4921
vn -0.1694 0.8510 -0.4971
vn -0.1455 0.8352 -0.5303
vn -0.1450 0.8350 -0.5307
vn -0.1048 0.8243 -0.5563
vn -0.1079 0.8248 -0.5549
vn -0.0551 0.8201 -0.5695
vn -0.0625 0.8203 -0.5685
vn 0.0009 0.8239 -0.5667
vn -0.0111 0.8224 -0.5687
vn 0.0626 0.8384 -0.5414
vn 0.0459 0.8336 -0.5505
vn 0.1282 0.8681 -0.4794
vn 0.1092 0.8584 -0.5012
vn 0.1781 0.9171 -0.3567
vn 0.1679 0.9042 -0.3927
vn 0.1604 0.9740 -0.1600
vn 0.1687 0.9658 -0.1967
vn 0.0866 0.9962 -0.0018
vn 0.0922 0.9957 -0.0087
vn 0.0360 0.9979 0.0531
vn 0.0219 0.9983 0.0531
vn 0.0093 0.9987 0.0490
vn 0.0006 0.9991 0.0427
vn -0.0038 0.9994 0.0354
vn -0.0054 0.9996 0.0279
vn -0.0013 0.9998 0.0189
vn -0.0049 0.9998 0.0208
vn -0.0008 0.9999 0.0140
vn -0.0031 0.9999 0.0139
vn -0.0014 1.0000 0.0069
vn 0.0001 1.0000 -0.0005
vn 0.0006 0.9999 -0.0089
vn 0.0015 1.0000 -0.0011
vn 0.0045 1.0000 0.0040
vn 0.0048 1.0000 0.0036
vn 0.0015 1.0000 0.0056
vn 0.0010 1.0000 0.0055
vn -0.0013 1.0000 0.0045
vn 0.0005 0.9999 0.0089
vn 0.0003 0.9999 0.0086
usemtl None
s 1
f 2//1 4//2 3//3 1//4
f 4//2 6//5 5//6 3//3
f 6//5 8//7 7//8 5//6
f 8//7 10//9 9//10 7//8
f 10//9 12//11 11//12 9//10
f 12//11 14//13 13//14 11//12
f 14//13 16//15 15//16 13//14
f 16//15 18//17 17//18 15//16
f 18//17 20//19 19//20 17//18
f 20//19 22//21 21//22 19//20
f 22//21 24//23 23//24 21//22
f 24//23 26//25 25//26 23//24
f 26//25 28//27 27//28 25//26
f 28//27 30//29 29//30 27//28
f 30//29 32//31 31//32 29//30
f 32//31 34//33 33//34 31//32
f 34//33 36//35 35//36 33//34
f 36//35 38//37 37//38 35//36
f 38//37 40//39 39//40 37//38
f 40//39 42//41 41//42 39//40
f 42//41 44//43 43//44 41//42
f 44//43 46//45 45//46 43//44
f 46//45 48//47 47//48 45//46
f 48//47 50//49 49//50 47//48
f 50//49 52//51 51//52 49//50
f 52//51 54//53 53//54 51//52
f 54//53 56//55 55//56 53//54
f 56//55 58//57 57//58 55//56
f 58//57 60//59 59//60 57//58
f 60//59 62//61 61//62 59//60
f 62//61 64//63 63//64 61//62
f 64//63 66//65 65//66 63//64
f 66//65 68//67 67//68 65//66
f 68//67 70//69 69//70 67//68
f 70//69 72//71 71//72 69//70
f 72//71 74//73 73//74 71//72
f 74//73 76//75 75//76 73//74
f 76//75 78//77 77//77 75//76
f 78//77 80//78 79//78 77//77
f 80//78 82//79 81//79 79//78
f 82//79 84//80 83//80 81//79
f 84//80 86//81 85//81 83//80
f 86//81 88//82 87//83 85//81
f 88//82 90//84 89//84 87//83
f 90//84 92//85 91//85 89//84
f 92//85 94//86 93//86 91//85
f 94//86 96//87 95//87 93//86
f 96//87 98//88 97//89 95//87
f 98//88 100//90 99//91 97//89
f 100//90 102//92 101//93 99//91
f 102//92 104//94 103//95 101//93
f 104//94 106//96 105//97 103//95
f 106//96 108//98 107//99 105//97
f 108//98 110//100 109//101 107//99
f 110//100 112//102 111//103 109//101
f 112//102 114//104 113//105 111//103
f 114//104 116//106 115//107 113//105
f 116//106 118//108 117//109 115//107
f 118//108 120//110 119//111 117//109
f 120//110 122//112 121//113 119//111
f 122//112 124//114 123//114 121//113
f 124//114 126//115 125//115 123//114
f 126//115 128//116 127//116 125//115
f 128//116 130//117 129//117 127//116
f 130//117 132//118 131//118 129//117
f 132//118 134//119 133//120 131//118
f 134//119 136//121 135//122 133//120
f 136//121 138//123 137//123 135//122
f 138//123 140//124 139//124 137//123
f 140//124 142//125 141//125 139//124
f 142//125 144//126 143//127 141//125
f 144//126 2//1 1//4 143//127
f 133//120 135//122 146//128 145//129
f 145//129 146//128 148//130 147//131
f 147//131 148//130 150//132 149//132
f 149//132 150//132 152//133 151//134
f 143//127 1//4 151//134 152//133
o L_1_D_60_0:0:10_0.5:0.5:0.5_Cube
v 0.000000 40.000000 -30.000000
v 3.562600 43.562599 -24.961723
v -1.475677 48.600876 -24.961723
v -5.038277 45.038277 -30.000002
v 3.562602 43.562599 -35.038277
v 7.125199 47.125202 -29.999998
v 2.086921 52.163475 -30.000000
v -1.475677 48.600876 -35.038277
vn -0.5000 -0.5000 0.7071
vn 0.5000 0.5000 -0.7071
vn 0.7071 -0.7071 0.0000
vn 0.5000 0.5000 0.7071
vn -0.7071 0.7071 0.0000
vn -0.5000 -0.5000 -0.7071
usemtl Material
s off
f 153//135 154//135 155//135 156//135
f 157//136 160//136 159//136 158//136
f 153//137 157//137 158//137 154//137
f 154//138 158//138 159//138 155//138
f 155//139 159//139 160//139 156//139
f 157//140 153//140 156//140 160//140
o L_3_P_100_Cube.001
v -110.000000 50.000000 -10.000000
v -106.437401 53.562599 -4.961723
v -111.475677 58.600876 -4.961723
v -115.038277 55.038277 -10.000001
v -106.437401 53.562599 -15.038276
v -102.874802 57.125202 -9.999999
v -107.913078 62.163475 -10.000001
v -111.475677 58.600876 -15.038277
vn -0.5000 -0.5000 0.7071
vn 0.5000 0.5000 -0.7071
vn 0.7071 -0.7071 0.0000
vn 0.5000 0.5000 0.7071
vn -0.7071 0.7071 0.0000
vn -0.5000 -0.5000 -0.7071
usemtl Material.001
s off
f 161//141 162//141 163//141 164//141
f 165//142 168//142 167//142 166//142
f 161//143 165//143 166//143 162//143
f 162//144 166//144 167//144 163//144
f 163//145 167//145 168//145 164//145
f 165//146 161//146 164//146 168//146
o W_0_80_Cube.002
v 0.000000 0.000000 -24.737925
v 3.562600 3.562600 -19.699648
v -1.475677 8.600877 -19.699648
v -5.038277 5.038275 -24.737926
v 3.562602 3.562599 -29.776199
v 7.125199 7.125202 -24.737923
v 2.086921 12.163477 -24.737925
v -1.475677 8.600877 -29.776201
vn -0.5000 -0.5000 0.7071
vn 0.5000 0.5000 -0.7071
vn 0.7071 -0.7071 0.0000
vn 0.5000 0.5000 0.7071
vn -0.7071 0.7071 -0.0000
vn -0.5000 -0.5000 -0.7071
usemtl Material.002
s off
f 169//147 170//147 171//147 172//147
f 173//148 176//148 175//148 174//148
f 169//149 173//149 174//149 170//149
f 170//150 174//150 175//150 171//150
f 171//151 175//151 176//151 172//151
f 173//152 169//152 172//152 176//152
o L_0_P_100_45:45:45.001_Cube.004
v -64.436913 181.453278 210.039520
v -60.874313 185.015884 215.077805
v -65.912590 190.054153 215.077789
v -69.475189 186.491547 210.039520
v -60.874310 185.015869 205.001251
v -57.311714 188.578476 210.039520
v -62.349991 193.616760 210.039520
v -65.912590 190.054153 205.001236
vn -0.5000 -0.5000 0.7071
vn 0.5000 0.5000 -0.7071
vn 0.7071 -0.7071 0.0000
vn 0.5000 0.5000 0.7071
vn -0.7071 0.7071 -0.0000
vn -0.5000 -0.5000 -0.7071
usemtl Material.004
s off
f 177//153 178//153 179//153 180//153
f 181//154 184//154 183//154 182//154
f 177//155 181//155 182//155 178//155
f 178//156 182//156 183//156 179//156
f 179//157 183//157 184//157 180//157
f 181//158 177//158 180//158 184//158
o L_2_P_80_Cube.005
v 110.000000 50.000000 -40.000000
v 113.562599 53.562599 -34.961723
v 108.524323 58.600876 -34.961723
v 104.961723 55.038277 -40.000000
v 113.562599 53.562599 -45.038277
v 117.125198 57.125202 -40.000000
v 112.086922 62.163475 -40.000000
v 108.524323 58.600876 -45.038277
vn -0.5000 -0.5000 0.7071
vn 0.5000 0.5000 -0.7071
vn 0.7071 -0.7071 0.0000
vn 0.5000 0.5000 0.7071
vn -0.7071 0.7071 0.0000
vn -0.5000 -0.5000 -0.7071
usemtl Material.005
s off
f 185//159 186//159 187//159 188//159
f 189//160 192//160 191//160 190//160
f 185//161 189//161 190//161 186//161
f 186//162 190//162 191//162 187//162
f 187//163 191//163 192//163 188//163
f 189//164 185//164 188//164 192//164
o W_1_80_Cube.006
v 99.403587 0.000000 0.000000
v 102.966187 3.562600 5.038277
v 97.927910 8.600877 5.038277
v 94.365311 5.038275 -0.000001
v 102.966187 3.562599 -5.038276
v 106.528786 7.125202 0.000001
v 101.490509 12.163477 -0.000001
v 97.927910 8.600877 -5.038277
vn -0.5000 -0.5000 0.7071
vn 0.5000 0.5000 -0.7071
vn 0.7071 -0.7071 0.0000
vn 0.5000 0.5000 0.7071
vn -0.7071 0.7071 0.0000
vn -0.5000 -0.5000 -0.7071
usemtl Material.006
s off
f 193//165 194//165 195//165 196//165
f 197//166 200//166 199//166 198//166
f 193//167 197//167 198//167 194//167
f 194//168 198//168 199//168 195//168
f 195//169 199//169 200//169 196//169
f 197//170 193//170 196//170 200//170
o W_2_90.5_Cube.007
v 178.683075 0.000000 1.947726
v 182.245682 3.562600 6.986003
v 177.207397 8.600877 6.986002
v 173.644791 5.038275 1.947724
v 182.245682 3.562599 -3.090550
v 185.808273 7.125202 1.947727
v 180.769989 12.163477 1.947725
v 177.207397 8.600877 -3.090551
vn -0.5000 -0.5000 0.7071
vn 0.5000 0.5000 -0.7071
vn 0.7071 -0.7071 0.0000
vn 0.5000 0.5000 0.7071
vn -0.7071 0.7071 -0.0000
vn -0.5000 -0.5000 -0.7071
usemtl Material.007
s off
f 201//171 202//171 203//171 204//171
f 205//172 208//172 207//172 206//172
f 201//173 205//173 206//173 202//173
f 202//174 206//174 207//174 203//174
f 203//175 207//175 208//175 204//175
f 205//176 201//176 204//176 208//176
o I_1_0:0:0_0.5:0.5:0.5_Cube.008
v 78.523079 0.000000 -24.461281
v 82.085678 3.562600 -19.423004
v 77.047401 8.600877 -19.423004
v 73.484802 5.038275 -24.461283
v 82.085678 3.562599 -29.499557
v 85.648277 7.125202 -24.461279
v 80.610001 12.163477 -24.461281
v 77.047401 8.600877 -29.499557
vn -0.5000 -0.5000 0.7071
vn 0.5000 0.5000 -0.7071
vn 0.7071 -0.7071 0.0000
vn 0.5000 0.5000 0.7071
vn -0.7071 0.7071 0.0000
vn -0.5000 -0.5000 -0.7071
usemtl Material.008
s off
f 209//177 210//177 211//177 212//177
f 213//178 216//178 215//178 214//178
f 209//179 213//179 214//179 210//179
f 210//180 214//180 215//180 211//180
f 211//181 215//181 216//181 212//181
f 213//182 209//182 212//182 216//182
o I_2_Cube.009
v 78.523079 0.000000 -4.931152
v 82.085678 3.562600 0.107125
v 77.047401 8.600877 0.107124
v 73.484802 5.038275 -4.931154
v 82.085678 3.562599 -9.969428
v 85.648277 7.125202 -4.931151
v 80.610001 12.163477 -4.931153
v 77.047401 8.600877 -9.969429
vn -0.5000 -0.5000 0.7071
vn 0.5000 0.5000 -0.7071
vn 0.7071 -0.7071 0.0000
vn 0.5000 0.5000 0.7071
vn -0.7071 0.7071 0.0000
vn -0.5000 -0.5000 -0.7071
usemtl Material.009
s off
f 217//183 218//183 219//183 220//183
f 221//184 224//184 223//184 222//184
f 217//185 221//185 222//185 218//185
f 218//186 222//186 223//186 219//186
f 219//187 223//187 224//187 220//187
f 221//188 217//188 220//188 224//188
o I_3_45:45:45_0.5:0.5:0.5_Cube.010
v 78.523079 0.000000 15.191893
v 82.085678 3.562600 20.230169
v 77.047401 8.600877 20.230169
v 73.484802 5.038275 15.191892
v 82.085678 3.562599 10.153617
v 85.648277 7.125202 15.191894
v 80.610001 12.163477 15.191892
v 77.047401 8.600877 10.153616
vn -0.5000 -0.5000 0.7071
vn 0.5000 0.5000 -0.7071
vn 0.7071 -0.7071 0.0000
vn 0.5000 0.5000 0.7071
vn -0.7071 0.7071 0.0000
vn -0.5000 -0.5000 -0.7071
usemtl Material.010
s off
f 225//189 226//189 227//189 228//189
f 229//190 232//190 231//190 230//190
f 225//191 229//191 230//191 226//191
f 226//192 230//192 231//192 227//192
f 227//193 231//193 232//193 228//193
f 229//194 225//194 228//194 232//194
