# Blender v2.79 (sub 0) OBJ File: 'PISTA.blend'
# www.blender.org
mtllib PISTA.mtl
o BezierCurve.001_CUBezierCurve.001
v 28.348705 20.247082 13.194189
v 19.333805 20.207138 3.922507
v 9.976793 20.207138 3.280867
v 0.021263 20.207138 9.314000
v -0.929755 20.005175 20.716465
v 4.923214 20.016745 29.025488
v 26.219528 20.207138 33.287075
v 31.575325 20.247082 21.430542
v 34.795036 20.801243 21.430542
v 31.274651 20.944719 13.194187
v 37.907494 21.554527 21.430542
v 34.103130 21.789116 13.194189
v 40.907372 22.302086 21.430542
v 36.829304 22.981779 13.194189
v 44.135525 22.961103 21.351940
v 38.405876 23.354483 13.222157
v 50.016426 23.819818 19.319994
v 39.258869 23.483019 12.900433
v 39.038021 23.446783 13.233433
v 48.413315 23.543552 21.253065
v 50.046234 23.721039 12.091663
v 39.231838 23.464277 11.681139
v 49.859245 23.840366 8.007924
v 39.061916 23.840368 7.969995
v 49.666885 24.062592 5.308280
v 38.887100 24.062592 5.516665
v 49.287090 24.355755 2.686588
v 38.541962 24.355757 3.134172
v 48.646427 24.644745 -0.457097
v 37.959755 24.644745 0.277314
v 47.881378 24.995783 -3.672750
v 37.264503 24.995783 -2.644946
v 46.761997 25.821091 -7.886956
v 36.247253 25.821091 -6.474650
v 45.856613 26.500408 -11.101883
v 35.424477 26.500408 -9.396254
v 43.945389 26.755970 -15.584675
v 34.780312 26.600838 -10.475231
v 39.055813 26.651218 -19.022182
v 33.908775 26.604891 -11.261465
v 34.957172 26.642195 -19.068680
v 32.161392 26.642195 -11.219210
v 32.936626 26.642195 -19.093475
v 29.462254 26.642195 -11.196676
v 29.897686 26.642195 -19.093475
v 26.700584 26.642195 -11.196676
v 27.062847 26.642195 -19.093475
v 24.124393 26.642195 -11.196676
v 24.583252 26.643642 -19.087328
v 21.610626 26.640747 -11.202263
v 21.908588 26.643642 -19.037289
v 18.462242 26.504406 -11.247738
v 14.856171 26.699507 -18.821230
v 10.840079 26.472355 -11.266342
v 12.631832 26.755531 -19.073145
v 7.953815 26.410349 -11.605152
v 9.973383 26.890072 -19.430798
v 4.961071 26.488564 -11.980110
v -3.037485 27.152365 -20.376381
v -5.713056 26.616167 -12.432573
v -7.977078 26.932236 -20.811266
v -9.446301 26.235104 -12.915701
v -10.979136 26.403343 -21.322416
v -12.848029 25.492451 -13.233225
v -16.004208 24.942970 -22.205521
v -17.414623 23.824327 -14.046162
v -21.288521 22.967894 -23.098707
v -21.511147 22.026207 -14.781178
v -25.872913 21.323345 -23.770063
v -25.677261 20.269512 -15.513115
v -29.429550 19.858118 -24.354744
v -28.909393 18.853331 -15.583717
v -33.175144 18.546352 -24.766291
v -32.313244 17.477709 -15.957714
v -38.530319 15.804342 -25.578571
v -35.111561 15.771341 -16.462782
v -43.589909 13.200032 -24.316341
v -37.463398 14.459440 -16.822416
v -47.432365 10.621988 -19.738239
v -38.887749 13.322476 -15.295277
v -47.432369 8.567303 -14.952103
v -38.887749 10.883615 -10.945820
v -48.473953 7.041353 -12.158060
v -40.520119 8.262808 -7.174082
v -50.465401 6.077339 -11.073904
v -44.913803 5.761163 -4.094788
v -52.740887 6.060389 -11.361975
v -49.506252 5.761163 -3.833002
v -57.353989 5.911741 -11.361975
v -53.698456 5.761163 -3.833002
v -62.150894 5.773240 -11.361975
v -58.057701 5.761163 -3.833004
v -68.059601 5.773240 -11.275341
v -62.013290 5.761163 -3.911734
v -73.040146 5.773240 -10.955267
v -64.984192 5.761163 -3.834617
v -77.692879 5.773240 -7.870439
v -66.819359 5.761163 -2.756260
v -79.838303 5.773240 -2.024611
v -67.645203 5.761163 -1.374312
v -79.838303 5.773240 1.591677
v -67.786453 5.761163 1.912028
v -79.167320 5.773240 8.349989
v -67.521584 5.761163 4.730086
v -74.709740 5.773240 13.373032
v -65.597725 5.761163 6.802797
v -67.900673 5.773240 14.332558
v -63.496540 5.761163 7.008556
v -64.157623 5.773240 14.332558
v -60.095009 5.761163 7.008556
v -59.587643 5.773240 14.332558
v -55.941978 5.761163 7.008557
v -54.096592 5.773240 14.332558
v -50.951923 5.761163 7.008557
v -52.023685 5.772987 14.971592
v -47.352215 5.761416 7.763309
v -50.772736 5.772987 16.302359
v -43.371967 5.761416 10.531523
v -47.708717 5.772987 20.157356
v -40.587521 5.647631 14.034796
v -45.153599 5.778066 23.371477
v -38.265526 5.528597 16.955666
v -41.898178 6.212227 26.914970
v -35.307121 6.079263 20.175852
v -36.839855 6.944720 28.387758
v -34.787632 6.196785 20.378908
v -33.075478 7.255157 28.555622
v -33.984093 6.236672 20.117880
v -30.189278 8.540717 26.438906
v -32.463333 6.980549 19.056568
v -27.529121 9.767654 24.319786
v -30.045883 8.164339 17.870033
v -26.457748 10.232718 24.691071
v -25.991573 9.831862 16.166857
v -25.520473 10.610532 25.302795
v -22.628448 11.276135 18.350311
v -24.706120 10.990672 25.943666
v -20.637268 12.387851 20.090422
v -23.076511 12.011055 27.514647
v -18.780495 13.439310 22.188040
v -20.363674 13.351954 30.554203
v -16.449921 14.634640 24.643007
v -17.735092 14.628283 32.983196
v -15.590751 14.951851 25.191126
v -12.387753 15.529233 33.043823
v -14.560368 15.170433 25.136034
v -8.624368 16.150316 31.611944
v -11.987846 15.837149 24.196491
v -4.471264 17.264561 29.805002
v -8.213662 17.275873 22.545198
v -0.699480 18.393036 28.105511
v -4.786014 18.671831 21.000765
v -0.375993 26.552366 -12.206343
v 3.467949 27.021217 -19.903589
v 2.292539 26.520464 -12.093225
v 0.215232 27.086792 -20.139986
v -3.044525 26.584267 -12.319458
v 6.720666 26.955645 -19.667194
v 13.123697 20.111942 36.364845
v 28.348705 20.247082 13.194189
v 19.333805 20.207138 3.922507
v 9.976793 20.207138 3.280867
v 0.021263 20.207138 9.314000
v -0.929755 20.005175 20.716465
v 4.923214 20.016745 29.025488
v 26.219528 20.207138 33.287075
v 31.575325 20.247082 21.430542
v -47.708717 5.772987 20.157356
v -40.587521 5.647631 14.034796
v -45.153599 5.778066 23.371477
v -38.265526 5.528597 16.955666
v -41.898178 6.212227 26.914970
v -35.307121 6.079263 20.175852
v -36.839855 6.944720 28.387758
v -34.787632 6.196785 20.378908
v -33.075478 7.255157 28.555622
v -33.984093 6.236672 20.117880
v -30.189278 8.540717 26.438906
v -32.463333 6.980549 19.056568
v -27.529121 9.767654 24.319786
v -30.045883 8.164339 17.870033
v -26.457748 10.232718 24.691071
v -25.991573 9.831862 16.166857
v -25.520473 10.610532 25.302795
v -22.628448 11.276135 18.350311
v -24.706120 10.990672 25.943666
v -20.637268 12.387851 20.090422
v -23.076511 12.011055 27.514647
v -18.780495 13.439310 22.188040
v -20.363674 13.351954 30.554203
v -16.449921 14.634640 24.643007
v -17.735092 14.628283 32.983196
v -15.590751 14.951851 25.191126
v -12.387753 15.529233 33.043823
v -14.560368 15.170433 25.136034
v -8.624368 16.150316 31.611944
v -11.987846 15.837149 24.196491
v -4.471264 17.264561 29.805002
v -8.213662 17.275873 22.545198
v -0.699480 18.393036 28.105511
v -4.786014 18.671831 21.000765
v 13.123697 20.111942 36.364845
vn 0.0057 -1.0000 -0.0039
vn -0.1988 0.9759 0.0899
vn -0.2573 0.9567 0.1364
vn -0.3143 0.9276 0.2019
vn -0.2044 0.9611 0.1855
vn -0.1323 0.9810 0.1418
vn -0.0759 0.9942 0.0760
vn -0.0231 0.9996 -0.0139
vn -0.0132 0.9979 0.0640
vn 0.0007 0.9963 0.0859
vn 0.0035 0.9933 0.1159
vn 0.0052 0.9955 0.0948
vn 0.0092 0.9937 0.1115
vn 0.0225 0.9805 0.1952
vn 0.0309 0.9777 0.2078
vn 0.0123 0.9982 0.0582
vn -0.0159 0.9999 -0.0021
vn 0.0048 1.0000 0.0054
vn 0.0000 1.0000 0.0000
vn 0.0000 1.0000 0.0002
vn -0.0234 0.9997 -0.0005
vn 0.0020 0.9997 0.0248
vn -0.0052 0.9994 0.0351
vn 0.0287 0.9972 0.0685
vn 0.0123 0.9974 0.0703
vn -0.0751 0.9955 0.0579
vn -0.2015 0.9779 0.0563
vn -0.3183 0.9465 0.0540
vn -0.3835 0.9203 0.0771
vn -0.3754 0.9203 0.1102
vn -0.3979 0.9087 0.1266
vn -0.3617 0.9221 0.1372
vn -0.4930 0.8532 0.1702
vn -0.4408 0.8776 0.1885
vn -0.4019 0.8942 0.1974
vn -0.4339 0.8084 0.3976
vn -0.3853 0.8429 0.3754
vn -0.3098 0.9083 0.2810
vn -0.0026 0.9990 0.0440
vn -0.0169 0.9992 0.0376
vn -0.0151 0.9997 0.0186
vn 0.0000 1.0000 0.0016
vn 0.0001 1.0000 0.0016
vn 0.0006 1.0000 0.0010
vn 0.0009 1.0000 0.0004
vn 0.0010 1.0000 0.0000
vn 0.0010 1.0000 -0.0001
vn 0.0008 1.0000 -0.0007
vn 0.0002 1.0000 -0.0015
vn 0.0000 1.0000 -0.0016
vn 0.0004 1.0000 -0.0014
vn 0.0008 1.0000 -0.0010
vn 0.0134 0.9999 0.0048
vn 0.0253 0.9997 -0.0016
vn -0.0596 0.9942 -0.0900
vn -0.1127 0.9857 -0.1249
vn -0.0783 0.9906 -0.1118
vn -0.4500 0.8914 -0.0548
vn -0.4531 0.8903 -0.0467
vn -0.3982 0.9148 -0.0679
vn -0.3554 0.9327 -0.0612
vn -0.4147 0.9065 -0.0794
vn -0.4317 0.8969 -0.0963
vn -0.3914 0.9180 -0.0645
vn -0.3743 0.9256 -0.0570
vn -0.1729 0.9849 -0.0019
vn -0.1899 0.9815 0.0256
vn -0.2621 0.9591 0.1072
vn -0.2610 0.9517 0.1615
vn -0.3040 0.9288 0.2121
vn 0.0125 0.9978 0.0659
vn 0.0127 0.9979 0.0635
vn 0.0124 0.9976 0.0681
vn 0.0000 0.0000 1.0000
usemtl None
s off
f 2//1 1//1 8//1 7//1 159//1 6//1 5//1 4//1 3//1
f 8//2 9//2 10//2 1//2
f 10//3 9//3 11//3 12//3
f 12//4 11//4 13//4 14//4
f 14//5 13//5 15//5 16//5
f 16//6 15//6 20//6 19//6
f 19//7 20//7 17//7 18//7
f 18//8 17//8 21//8 22//8
f 22//9 21//9 23//9 24//9
f 24//10 23//10 25//10 26//10
f 26//11 25//11 27//11 28//11
f 28//12 27//12 29//12 30//12
f 30//13 29//13 31//13 32//13
f 32//14 31//14 33//14 34//14
f 34//15 33//15 35//15 36//15
f 36//16 35//16 37//16 38//16
f 38//17 37//17 39//17 40//17
f 40//18 39//18 41//18 42//18
f 42//19 41//19 43//19 44//19
f 44//19 43//19 45//19 46//19
f 46//19 45//19 47//19 48//19
f 48//20 47//20 49//20 50//20
f 50//21 49//21 51//21 52//21
f 52//22 51//22 53//22 54//22
f 54//23 53//23 55//23 56//23
f 56//24 55//24 57//24 58//24
f 157//25 156//25 59//25 60//25
f 60//26 59//26 61//26 62//26
f 62//27 61//27 63//27 64//27
f 64//28 63//28 65//28 66//28
f 66//29 65//29 67//29 68//29
f 68//30 67//30 69//30 70//30
f 70//31 69//31 71//31 72//31
f 72//32 71//32 73//32 74//32
f 74//33 73//33 75//33 76//33
f 76//34 75//34 77//34 78//34
f 78//35 77//35 79//35 80//35
f 80//36 79//36 81//36 82//36
f 82//37 81//37 83//37 84//37
f 84//38 83//38 85//38 86//38
f 86//39 85//39 87//39 88//39
f 88//40 87//40 89//40 90//40
f 90//41 89//41 91//41 92//41
f 92//42 91//42 93//42 94//42
f 94//43 93//43 95//43 96//43
f 96//44 95//44 97//44 98//44
f 98//45 97//45 99//45 100//45
f 100//46 99//46 101//46 102//46
f 102//47 101//47 103//47 104//47
f 104//48 103//48 105//48 106//48
f 106//49 105//49 107//49 108//49
f 108//50 107//50 109//50 110//50
f 110//50 109//50 111//50 112//50
f 112//50 111//50 113//50 114//50
f 114//51 113//51 115//51 116//51
f 116//52 115//52 117//52 118//52
f 118//53 117//53 119//53 120//53
f 120//54 119//54 121//54 122//54
f 122//55 121//55 123//55 124//55
f 124//56 123//56 125//56 126//56
f 126//57 125//57 127//57 128//57
f 128//58 127//58 129//58 130//58
f 130//59 129//59 131//59 132//59
f 132//60 131//60 133//60 134//60
f 134//61 133//61 135//61 136//61
f 136//62 135//62 137//62 138//62
f 138//63 137//63 139//63 140//63
f 140//64 139//64 141//64 142//64
f 142//65 141//65 143//65 144//65
f 144//66 143//66 145//66 146//66
f 146//67 145//67 147//67 148//67
f 148//68 147//68 149//68 150//68
f 150//69 149//69 151//69 152//69
f 152//70 151//70 6//70 5//70
f 155//71 158//71 154//71 153//71
f 58//72 57//72 158//72 155//72
f 153//73 154//73 156//73 157//73
f 147//74 145//74 194//74 196//74
f 120//74 122//74 171//74 169//74
f 138//74 140//74 189//74 187//74
f 3//74 4//74 163//74 162//74
f 121//74 119//74 168//74 170//74
f 139//74 137//74 186//74 188//74
f 4//74 5//74 164//74 163//74
f 130//74 132//74 181//74 179//74
f 148//74 150//74 199//74 197//74
f 131//74 129//74 178//74 180//74
f 149//74 147//74 196//74 198//74
f 122//74 124//74 173//74 171//74
f 6//74 159//74 202//74 165//74
f 140//74 142//74 191//74 189//74
f 123//74 121//74 170//74 172//74
f 141//74 139//74 188//74 190//74
f 7//74 8//74 167//74 166//74
f 132//74 134//74 183//74 181//74
f 150//74 152//74 201//74 199//74
f 159//74 7//74 166//74 202//74
f 133//74 131//74 180//74 182//74
f 151//74 149//74 198//74 200//74
f 124//74 126//74 175//74 173//74
f 142//74 144//74 193//74 191//74
f 6//74 151//74 200//74 165//74
f 125//74 123//74 172//74 174//74
f 143//74 141//74 190//74 192//74
f 134//74 136//74 185//74 183//74
f 135//74 133//74 182//74 184//74
f 152//74 5//74 164//74 201//74
f 126//74 128//74 177//74 175//74
f 144//74 146//74 195//74 193//74
f 127//74 125//74 174//74 176//74
f 145//74 143//74 192//74 194//74
f 136//74 138//74 187//74 185//74
f 137//74 135//74 184//74 186//74
f 1//74 2//74 161//74 160//74
f 128//74 130//74 179//74 177//74
f 146//74 148//74 197//74 195//74
f 2//74 3//74 162//74 161//74
f 129//74 127//74 176//74 178//74
